<mxfile host="Electron" agent="Mozilla/5.0 (X11; Linux x86_64) AppleWebKit/537.36 (KHTML, like Gecko) draw.io/26.2.2 Chrome/134.0.6998.178 Electron/35.1.2 Safari/537.36" version="26.2.2">
  <diagram name="Page-1" id="ZnYFvcdXMpUa63u5sp1S">
    <mxGraphModel dx="4369" dy="504" grid="1" gridSize="10" guides="1" tooltips="1" connect="1" arrows="1" fold="1" page="1" pageScale="1" pageWidth="850" pageHeight="1100" math="0" shadow="0">
      <root>
        <mxCell id="0" />
        <mxCell id="1" parent="0" />
        <mxCell id="dlKPfvXyrDqPOblD6m5v-67" value="LOCK IN EXTERNAL&lt;div&gt;&lt;br&gt;&lt;/div&gt;&lt;div&gt;&lt;br&gt;&lt;/div&gt;&lt;div&gt;&lt;br&gt;&lt;/div&gt;&lt;div&gt;&lt;span style=&quot;background-color: transparent; color: light-dark(rgb(0, 0, 0), rgb(255, 255, 255));&quot;&gt;- 1 P&lt;/span&gt;&lt;span style=&quot;background-color: transparent; text-wrap-mode: nowrap; color: rgba(0, 0, 0, 0); font-family: monospace; font-size: 0px; text-align: start;&quot;&gt;%3CmxGraphModel%3E%3Croot%3E%3CmxCell%20id%3D%220%22%2F%3E%3CmxCell%20id%3D%221%22%20parent%3D%220%22%2F%3E%3CmxCell%20id%3D%222%22%20value%3D%22tokenId%20%3D%3D%20Pool%26lt%3Bdiv%26gt%3BNft%20owner%26lt%3B%2Fdiv%26gt%3B%26lt%3Bdiv%26gt%3B%26amp%3Bnbsp%3B%26lt%3B%2Fdiv%26gt%3B%22%20style%3D%22rounded%3D1%3BwhiteSpace%3Dwrap%3Bhtml%3D1%3B%22%20vertex%3D%221%22%20parent%3D%221%22%3E%3CmxGeometry%20x%3D%22200%22%20y%3D%22590%22%20width%3D%22120%22%20height%3D%2260%22%20as%3D%22geometry%22%2F%3E%3C%2FmxCell%3E%3C%2Froot%3E%3C%2FmxGraphModel%3E&lt;/span&gt;&lt;span style=&quot;background-color: transparent; color: light-dark(rgb(0, 0, 0), rgb(255, 255, 255));&quot;&gt;OL token&lt;/span&gt;&lt;/div&gt;&lt;div&gt;&lt;div&gt;- lock duration&lt;/div&gt;&lt;div&gt;- many NFT owners&lt;/div&gt;&lt;div&gt;&lt;br&gt;&lt;/div&gt;&lt;div&gt;&lt;br&gt;&lt;/div&gt;&lt;div&gt;&lt;br&gt;&lt;/div&gt;&lt;div&gt;&lt;br&gt;&lt;/div&gt;&lt;/div&gt;" style="whiteSpace=wrap;html=1;aspect=fixed;rounded=1;sketch=1;curveFitting=1;jiggle=2;" parent="1" vertex="1">
          <mxGeometry x="-600" y="1330" width="280" height="280" as="geometry" />
        </mxCell>
        <mxCell id="dlKPfvXyrDqPOblD6m5v-68" value="LOCK IN EXTERNAL&lt;div&gt;&lt;span style=&quot;background-color: transparent; color: light-dark(rgb(0, 0, 0), rgb(255, 255, 255));&quot;&gt;&lt;br&gt;&lt;/span&gt;&lt;/div&gt;&lt;div&gt;&lt;span style=&quot;background-color: transparent; color: light-dark(rgb(0, 0, 0), rgb(255, 255, 255));&quot;&gt;&lt;br&gt;&lt;/span&gt;&lt;/div&gt;&lt;div&gt;&lt;span style=&quot;background-color: transparent; color: light-dark(rgb(0, 0, 0), rgb(255, 255, 255));&quot;&gt;&lt;br&gt;&lt;/span&gt;&lt;/div&gt;&lt;div&gt;&lt;span style=&quot;background-color: transparent; color: light-dark(rgb(0, 0, 0), rgb(255, 255, 255));&quot;&gt;&lt;br&gt;&lt;/span&gt;&lt;/div&gt;&lt;div&gt;&lt;span style=&quot;background-color: transparent; color: light-dark(rgb(0, 0, 0), rgb(255, 255, 255));&quot;&gt;- 1 P&lt;/span&gt;&lt;span style=&quot;background-color: transparent; text-wrap-mode: nowrap; color: rgba(0, 0, 0, 0); font-family: monospace; font-size: 0px; text-align: start;&quot;&gt;%3CmxGraphModel%3E%3Croot%3E%3CmxCell%20id%3D%220%22%2F%3E%3CmxCell%20id%3D%221%22%20parent%3D%220%22%2F%3E%3CmxCell%20id%3D%222%22%20value%3D%22tokenId%20%3D%3D%20Pool%26lt%3Bdiv%26gt%3BNft%20owner%26lt%3B%2Fdiv%26gt%3B%26lt%3Bdiv%26gt%3B%26amp%3Bnbsp%3B%26lt%3B%2Fdiv%26gt%3B%22%20style%3D%22rounded%3D1%3BwhiteSpace%3Dwrap%3Bhtml%3D1%3B%22%20vertex%3D%221%22%20parent%3D%221%22%3E%3CmxGeometry%20x%3D%22200%22%20y%3D%22590%22%20width%3D%22120%22%20height%3D%2260%22%20as%3D%22geometry%22%2F%3E%3C%2FmxCell%3E%3C%2Froot%3E%3C%2FmxGraphModel%3E&lt;/span&gt;&lt;span style=&quot;background-color: transparent; color: light-dark(rgb(0, 0, 0), rgb(255, 255, 255));&quot;&gt;OL token&lt;/span&gt;&lt;/div&gt;&lt;div&gt;&lt;div&gt;- lock duration&lt;/div&gt;&lt;div&gt;- many NFT owners&lt;/div&gt;&lt;div&gt;&lt;br&gt;&lt;/div&gt;&lt;div&gt;&lt;br&gt;&lt;/div&gt;&lt;div&gt;&lt;br&gt;&lt;/div&gt;&lt;div&gt;&lt;br&gt;&lt;/div&gt;&lt;/div&gt;" style="whiteSpace=wrap;html=1;aspect=fixed;rounded=1;sketch=1;curveFitting=1;jiggle=2;" parent="1" vertex="1">
          <mxGeometry x="-570" y="1380" width="280" height="280" as="geometry" />
        </mxCell>
        <mxCell id="dlKPfvXyrDqPOblD6m5v-69" value="&lt;div&gt;&lt;div&gt;&lt;br&gt;&lt;/div&gt;&lt;/div&gt;" style="whiteSpace=wrap;html=1;rounded=1;sketch=1;curveFitting=1;jiggle=2;" parent="1" vertex="1">
          <mxGeometry x="-540" y="1425" width="420" height="615" as="geometry" />
        </mxCell>
        <mxCell id="dlKPfvXyrDqPOblD6m5v-75" value="&lt;div&gt;&lt;br&gt;&lt;/div&gt;" style="whiteSpace=wrap;html=1;imageAspect=1;rounded=1;sketch=1;curveFitting=1;jiggle=2;container=0;" parent="1" vertex="1">
          <mxGeometry x="-70" y="1450" width="480" height="640" as="geometry" />
        </mxCell>
        <mxCell id="dlKPfvXyrDqPOblD6m5v-93" style="edgeStyle=orthogonalEdgeStyle;shape=connector;curved=1;rounded=0;orthogonalLoop=1;jettySize=auto;html=1;exitX=0.25;exitY=1;exitDx=0;exitDy=0;entryX=0.75;entryY=0;entryDx=0;entryDy=0;strokeColor=#b85450;align=center;verticalAlign=middle;fontFamily=Helvetica;fontSize=11;fontColor=default;labelBackgroundColor=default;endArrow=classic;fillColor=#f8cecc;dashed=1;" parent="1" source="dlKPfvXyrDqPOblD6m5v-152" target="dlKPfvXyrDqPOblD6m5v-143" edge="1">
          <mxGeometry relative="1" as="geometry" />
        </mxCell>
        <mxCell id="dlKPfvXyrDqPOblD6m5v-96" value="" style="group" parent="1" vertex="1" connectable="0">
          <mxGeometry x="460" y="1920" width="308" height="220" as="geometry" />
        </mxCell>
        <mxCell id="dlKPfvXyrDqPOblD6m5v-97" value="&lt;div&gt;&lt;br&gt;&lt;/div&gt;" style="whiteSpace=wrap;html=1;imageAspect=1;rounded=1;fillColor=#fff2cc;strokeColor=#d6b656;" parent="dlKPfvXyrDqPOblD6m5v-96" vertex="1">
          <mxGeometry width="300" height="130" as="geometry" />
        </mxCell>
        <mxCell id="dlKPfvXyrDqPOblD6m5v-98" value="oriBGT" style="rounded=1;whiteSpace=wrap;html=1;align=center;verticalAlign=middle;fontFamily=Helvetica;fontSize=11;labelBackgroundColor=default;sketch=1;curveFitting=1;jiggle=2;fillColor=#dae8fc;strokeColor=#6c8ebf;" parent="dlKPfvXyrDqPOblD6m5v-96" vertex="1">
          <mxGeometry x="20" y="10" width="260" height="20" as="geometry" />
        </mxCell>
        <mxCell id="dlKPfvXyrDqPOblD6m5v-99" value="deposit()" style="rounded=1;whiteSpace=wrap;html=1;fontFamily=Helvetica;fontSize=11;labelBackgroundColor=default;fillColor=#f8cecc;strokeColor=#b85450;align=left;" parent="dlKPfvXyrDqPOblD6m5v-96" vertex="1">
          <mxGeometry x="18" y="50" width="210" height="30" as="geometry" />
        </mxCell>
        <mxCell id="IieZBMYYUs4yQp26rcU1-3" value="compound&amp;nbsp;&lt;div&gt;rewards&lt;/div&gt;" style="edgeStyle=orthogonalEdgeStyle;rounded=0;orthogonalLoop=1;jettySize=auto;html=1;exitX=0;exitY=0.75;exitDx=0;exitDy=0;entryX=0.5;entryY=1;entryDx=0;entryDy=0;" parent="dlKPfvXyrDqPOblD6m5v-96" source="IieZBMYYUs4yQp26rcU1-1" target="dlKPfvXyrDqPOblD6m5v-97" edge="1">
          <mxGeometry relative="1" as="geometry" />
        </mxCell>
        <mxCell id="IieZBMYYUs4yQp26rcU1-1" value="&lt;div&gt;&lt;br&gt;&lt;/div&gt;&lt;div&gt;&lt;br&gt;&lt;/div&gt;&lt;div&gt;feeAddress&lt;/div&gt;" style="shape=actor;whiteSpace=wrap;html=1;fillColor=#f5f5f5;strokeColor=#666666;fontColor=#333333;" parent="dlKPfvXyrDqPOblD6m5v-96" vertex="1">
          <mxGeometry x="228" y="150" width="80" height="70" as="geometry" />
        </mxCell>
        <mxCell id="dlKPfvXyrDqPOblD6m5v-100" value="iBGT &amp;gt;&amp;gt;&lt;div&gt;&amp;lt;&amp;lt; oriBGT&amp;nbsp;&lt;/div&gt;" style="edgeStyle=orthogonalEdgeStyle;shape=connector;curved=1;rounded=0;orthogonalLoop=1;jettySize=auto;html=1;exitX=1;exitY=0.5;exitDx=0;exitDy=0;entryX=0;entryY=0.25;entryDx=0;entryDy=0;strokeColor=#b85450;align=center;verticalAlign=middle;fontFamily=Helvetica;fontSize=11;fontColor=default;labelBackgroundColor=default;endArrow=classic;fillColor=#f8cecc;strokeWidth=2;" parent="1" source="dlKPfvXyrDqPOblD6m5v-144" target="dlKPfvXyrDqPOblD6m5v-99" edge="1">
          <mxGeometry x="-0.0318" relative="1" as="geometry">
            <mxPoint as="offset" />
          </mxGeometry>
        </mxCell>
        <mxCell id="dlKPfvXyrDqPOblD6m5v-101" value="POL &amp;gt;&amp;gt;&lt;div&gt;&amp;lt;&amp;lt; NFT&amp;nbsp;&lt;/div&gt;" style="edgeStyle=orthogonalEdgeStyle;shape=connector;curved=1;rounded=0;orthogonalLoop=1;jettySize=auto;html=1;exitX=1;exitY=0.25;exitDx=0;exitDy=0;entryX=0;entryY=0.25;entryDx=0;entryDy=0;strokeColor=#b85450;align=center;verticalAlign=middle;fontFamily=Helvetica;fontSize=11;fontColor=default;labelBackgroundColor=default;endArrow=classic;fillColor=#f8cecc;strokeWidth=2;" parent="1" source="dlKPfvXyrDqPOblD6m5v-157" target="dlKPfvXyrDqPOblD6m5v-81" edge="1">
          <mxGeometry relative="1" as="geometry" />
        </mxCell>
        <mxCell id="dlKPfvXyrDqPOblD6m5v-102" value="&amp;lt;&amp;lt; oriBGT" style="edgeStyle=orthogonalEdgeStyle;shape=connector;curved=1;rounded=0;orthogonalLoop=1;jettySize=auto;html=1;exitX=1;exitY=0.25;exitDx=0;exitDy=0;entryX=0;entryY=0.25;entryDx=0;entryDy=0;strokeColor=#b85450;align=center;verticalAlign=middle;fontFamily=Helvetica;fontSize=11;fontColor=default;labelBackgroundColor=default;endArrow=classic;fillColor=#f8cecc;strokeWidth=2;" parent="1" source="dlKPfvXyrDqPOblD6m5v-170" target="dlKPfvXyrDqPOblD6m5v-82" edge="1">
          <mxGeometry relative="1" as="geometry" />
        </mxCell>
        <mxCell id="dlKPfvXyrDqPOblD6m5v-115" value="&amp;lt;&amp;lt; oriBGT&lt;div&gt;&amp;lt;&amp;lt; POL&lt;/div&gt;" style="edgeStyle=orthogonalEdgeStyle;shape=connector;curved=1;rounded=0;orthogonalLoop=1;jettySize=auto;html=1;exitX=0.9;exitY=0.5;exitDx=0;exitDy=0;exitPerimeter=0;entryX=0;entryY=0.5;entryDx=0;entryDy=0;strokeColor=#b85450;align=center;verticalAlign=middle;fontFamily=Helvetica;fontSize=11;fontColor=default;labelBackgroundColor=default;endArrow=classic;fillColor=#f8cecc;strokeWidth=2;" parent="1" source="dlKPfvXyrDqPOblD6m5v-103" target="dlKPfvXyrDqPOblD6m5v-114" edge="1">
          <mxGeometry relative="1" as="geometry" />
        </mxCell>
        <mxCell id="dlKPfvXyrDqPOblD6m5v-122" style="edgeStyle=orthogonalEdgeStyle;shape=connector;curved=1;rounded=0;orthogonalLoop=1;jettySize=auto;html=1;exitX=1;exitY=0.75;exitDx=0;exitDy=0;entryX=0;entryY=0.5;entryDx=0;entryDy=0;strokeColor=#b85450;align=center;verticalAlign=middle;fontFamily=Helvetica;fontSize=11;fontColor=default;labelBackgroundColor=default;endArrow=classic;fillColor=#f8cecc;strokeWidth=2;" parent="1" source="dlKPfvXyrDqPOblD6m5v-103" target="dlKPfvXyrDqPOblD6m5v-121" edge="1">
          <mxGeometry relative="1" as="geometry" />
        </mxCell>
        <mxCell id="dlKPfvXyrDqPOblD6m5v-124" value="&amp;lt;&amp;lt; oriBGT" style="edgeLabel;html=1;align=center;verticalAlign=middle;resizable=0;points=[];rounded=1;strokeColor=#b85450;fontFamily=Helvetica;fontSize=11;fontColor=default;labelBackgroundColor=default;fillColor=#f8cecc;" parent="dlKPfvXyrDqPOblD6m5v-122" vertex="1" connectable="0">
          <mxGeometry x="0.4109" y="9" relative="1" as="geometry">
            <mxPoint as="offset" />
          </mxGeometry>
        </mxCell>
        <mxCell id="dlKPfvXyrDqPOblD6m5v-103" value="&lt;div&gt;&lt;br&gt;&lt;/div&gt;&lt;div&gt;&lt;br&gt;&lt;/div&gt;user" style="shape=actor;whiteSpace=wrap;html=1;fillColor=#f8cecc;strokeColor=#b85450;" parent="1" vertex="1">
          <mxGeometry x="-800" y="1775" width="80" height="70" as="geometry" />
        </mxCell>
        <mxCell id="lCTNNWpJkp7lbx310OnM-3" style="edgeStyle=orthogonalEdgeStyle;rounded=0;orthogonalLoop=1;jettySize=auto;html=1;exitX=1;exitY=0.75;exitDx=0;exitDy=0;entryX=0;entryY=0.75;entryDx=0;entryDy=0;fillColor=#f8cecc;strokeColor=#b85450;curved=1;strokeWidth=2;" parent="1" source="dlKPfvXyrDqPOblD6m5v-105" target="dlKPfvXyrDqPOblD6m5v-81" edge="1">
          <mxGeometry relative="1" as="geometry" />
        </mxCell>
        <mxCell id="lCTNNWpJkp7lbx310OnM-4" style="edgeStyle=orthogonalEdgeStyle;shape=connector;curved=1;rounded=0;orthogonalLoop=1;jettySize=auto;html=1;exitX=1;exitY=0.75;exitDx=0;exitDy=0;entryX=0;entryY=0.75;entryDx=0;entryDy=0;strokeColor=#b85450;align=center;verticalAlign=middle;fontFamily=Helvetica;fontSize=11;fontColor=default;labelBackgroundColor=default;endArrow=classic;fillColor=#f8cecc;strokeWidth=2;" parent="1" source="dlKPfvXyrDqPOblD6m5v-105" target="dlKPfvXyrDqPOblD6m5v-82" edge="1">
          <mxGeometry relative="1" as="geometry" />
        </mxCell>
        <mxCell id="lCTNNWpJkp7lbx310OnM-5" style="edgeStyle=orthogonalEdgeStyle;shape=connector;curved=1;rounded=0;orthogonalLoop=1;jettySize=auto;html=1;exitX=1;exitY=0.75;exitDx=0;exitDy=0;entryX=0;entryY=0.75;entryDx=0;entryDy=0;strokeColor=#b85450;align=center;verticalAlign=middle;fontFamily=Helvetica;fontSize=11;fontColor=default;labelBackgroundColor=default;endArrow=classic;fillColor=#f8cecc;strokeWidth=2;" parent="1" source="dlKPfvXyrDqPOblD6m5v-105" target="dlKPfvXyrDqPOblD6m5v-118" edge="1">
          <mxGeometry relative="1" as="geometry" />
        </mxCell>
        <mxCell id="dlKPfvXyrDqPOblD6m5v-105" value="&lt;div&gt;&lt;br&gt;&lt;/div&gt;&lt;div&gt;&lt;br&gt;&lt;/div&gt;user" style="shape=actor;whiteSpace=wrap;html=1;fillColor=#f8cecc;strokeColor=#b85450;" parent="1" vertex="1">
          <mxGeometry x="-240" y="2120" width="80" height="70" as="geometry" />
        </mxCell>
        <mxCell id="dlKPfvXyrDqPOblD6m5v-108" value="&amp;gt;&amp;gt; POL&lt;div&gt;&amp;lt;&amp;lt; oriBGT&lt;/div&gt;" style="edgeStyle=orthogonalEdgeStyle;shape=connector;curved=1;rounded=0;orthogonalLoop=1;jettySize=auto;html=1;exitX=1;exitY=0.75;exitDx=0;exitDy=0;entryX=0;entryY=0.5;entryDx=0;entryDy=0;strokeColor=#b85450;align=center;verticalAlign=middle;fontFamily=Helvetica;fontSize=11;fontColor=default;labelBackgroundColor=default;endArrow=classic;fillColor=#f8cecc;strokeWidth=2;" parent="1" source="lCTNNWpJkp7lbx310OnM-7" target="dlKPfvXyrDqPOblD6m5v-70" edge="1">
          <mxGeometry relative="1" as="geometry">
            <mxPoint x="-690" y="1832.5" as="sourcePoint" />
          </mxGeometry>
        </mxCell>
        <mxCell id="dlKPfvXyrDqPOblD6m5v-111" value="&lt;div&gt;&lt;font style=&quot;font-size: 50px;&quot;&gt;fund flow diagram&lt;/font&gt;&lt;/div&gt;" style="text;html=1;align=center;verticalAlign=middle;whiteSpace=wrap;rounded=0;fontFamily=Helvetica;fontSize=11;fontColor=default;labelBackgroundColor=default;" parent="1" vertex="1">
          <mxGeometry x="-1275" y="1178" width="470" height="100" as="geometry" />
        </mxCell>
        <mxCell id="dlKPfvXyrDqPOblD6m5v-153" style="edgeStyle=orthogonalEdgeStyle;shape=connector;curved=1;rounded=0;orthogonalLoop=1;jettySize=auto;html=1;exitX=1;exitY=0.25;exitDx=0;exitDy=0;strokeColor=#b85450;align=center;verticalAlign=middle;fontFamily=Helvetica;fontSize=11;fontColor=default;labelBackgroundColor=default;endArrow=classic;fillColor=#f8cecc;dashed=1;" parent="1" source="dlKPfvXyrDqPOblD6m5v-81" target="dlKPfvXyrDqPOblD6m5v-152" edge="1">
          <mxGeometry relative="1" as="geometry" />
        </mxCell>
        <mxCell id="dlKPfvXyrDqPOblD6m5v-81" value="deposit()" style="rounded=1;whiteSpace=wrap;html=1;fontFamily=Helvetica;fontSize=11;labelBackgroundColor=default;fillColor=#f8cecc;strokeColor=#b85450;align=left;container=0;" parent="1" vertex="1">
          <mxGeometry x="-50" y="1680" width="110" height="50" as="geometry" />
        </mxCell>
        <mxCell id="dlKPfvXyrDqPOblD6m5v-149" style="edgeStyle=orthogonalEdgeStyle;shape=connector;curved=1;rounded=0;orthogonalLoop=1;jettySize=auto;html=1;exitX=1;exitY=0.75;exitDx=0;exitDy=0;entryX=0.5;entryY=0;entryDx=0;entryDy=0;strokeColor=#b85450;align=center;verticalAlign=middle;fontFamily=Helvetica;fontSize=11;fontColor=default;labelBackgroundColor=default;endArrow=classic;fillColor=#f8cecc;dashed=1;" parent="1" source="dlKPfvXyrDqPOblD6m5v-82" target="dlKPfvXyrDqPOblD6m5v-143" edge="1">
          <mxGeometry relative="1" as="geometry" />
        </mxCell>
        <mxCell id="dlKPfvXyrDqPOblD6m5v-82" value="claimRewards()" style="rounded=1;whiteSpace=wrap;html=1;fontFamily=Helvetica;fontSize=11;labelBackgroundColor=default;fillColor=#f8cecc;strokeColor=#b85450;align=left;container=0;" parent="1" vertex="1">
          <mxGeometry x="-50" y="1740" width="110" height="60" as="geometry" />
        </mxCell>
        <mxCell id="dlKPfvXyrDqPOblD6m5v-83" value="COMPOUNDER" style="rounded=1;whiteSpace=wrap;html=1;align=center;verticalAlign=middle;fontFamily=Helvetica;fontSize=11;labelBackgroundColor=default;sketch=1;curveFitting=1;jiggle=2;container=0;fillColor=#dae8fc;strokeColor=#6c8ebf;" parent="1" vertex="1">
          <mxGeometry x="60" y="1470" width="260" height="20" as="geometry" />
        </mxCell>
        <mxCell id="dlKPfvXyrDqPOblD6m5v-84" value="COMPOUNDER&lt;div&gt;&lt;br&gt;&lt;/div&gt;&lt;div&gt;assets:&lt;/div&gt;&lt;div&gt;- rewards iBGT&lt;/div&gt;&lt;div&gt;- rewards other&lt;/div&gt;&lt;div&gt;&lt;br&gt;&lt;/div&gt;" style="text;html=1;align=center;verticalAlign=middle;whiteSpace=wrap;rounded=0;fontFamily=Helvetica;fontSize=11;fontColor=default;labelBackgroundColor=default;container=0;" parent="1" vertex="1">
          <mxGeometry x="-40" y="1545" width="140" height="110" as="geometry" />
        </mxCell>
        <mxCell id="dlKPfvXyrDqPOblD6m5v-150" style="edgeStyle=orthogonalEdgeStyle;shape=connector;curved=1;rounded=0;orthogonalLoop=1;jettySize=auto;html=1;exitX=1;exitY=0.25;exitDx=0;exitDy=0;entryX=0.25;entryY=0;entryDx=0;entryDy=0;strokeColor=#b85450;align=center;verticalAlign=middle;fontFamily=Helvetica;fontSize=11;fontColor=default;labelBackgroundColor=default;endArrow=classic;fillColor=#f8cecc;dashed=1;" parent="1" source="dlKPfvXyrDqPOblD6m5v-118" target="dlKPfvXyrDqPOblD6m5v-143" edge="1">
          <mxGeometry relative="1" as="geometry" />
        </mxCell>
        <mxCell id="dlKPfvXyrDqPOblD6m5v-118" value="withdraw()" style="rounded=1;whiteSpace=wrap;html=1;fontFamily=Helvetica;fontSize=11;labelBackgroundColor=default;fillColor=#f8cecc;strokeColor=#b85450;align=left;container=0;" parent="1" vertex="1">
          <mxGeometry x="-50" y="1840" width="110" height="60" as="geometry" />
        </mxCell>
        <mxCell id="dlKPfvXyrDqPOblD6m5v-133" value="" style="group" parent="1" vertex="1" connectable="0">
          <mxGeometry x="740" y="1680" width="140" height="210" as="geometry" />
        </mxCell>
        <mxCell id="dlKPfvXyrDqPOblD6m5v-134" value="&lt;div&gt;&lt;br&gt;&lt;/div&gt;" style="whiteSpace=wrap;html=1;imageAspect=1;rounded=1;fillColor=#e1d5e7;strokeColor=#9673a6;" parent="dlKPfvXyrDqPOblD6m5v-133" vertex="1">
          <mxGeometry width="140" height="180" as="geometry" />
        </mxCell>
        <mxCell id="dlKPfvXyrDqPOblD6m5v-135" value="INFRARED VAULT&lt;div&gt;ibgt&lt;/div&gt;" style="rounded=1;whiteSpace=wrap;html=1;align=center;verticalAlign=middle;fontFamily=Helvetica;fontSize=11;labelBackgroundColor=default;sketch=1;curveFitting=1;jiggle=2;" parent="dlKPfvXyrDqPOblD6m5v-133" vertex="1">
          <mxGeometry x="9.335200000000002" y="4" width="121.3352" height="46" as="geometry" />
        </mxCell>
        <mxCell id="dlKPfvXyrDqPOblD6m5v-136" value="stake()" style="rounded=1;whiteSpace=wrap;html=1;fontFamily=Helvetica;fontSize=11;labelBackgroundColor=default;fillColor=#f8cecc;strokeColor=#b85450;align=left;" parent="dlKPfvXyrDqPOblD6m5v-133" vertex="1">
          <mxGeometry x="4.666666666666668" y="90" width="98.00000000000001" height="30" as="geometry" />
        </mxCell>
        <mxCell id="dlKPfvXyrDqPOblD6m5v-137" value="getReward()" style="rounded=1;whiteSpace=wrap;html=1;fontFamily=Helvetica;fontSize=11;labelBackgroundColor=default;fillColor=#f8cecc;strokeColor=#b85450;align=left;" parent="dlKPfvXyrDqPOblD6m5v-133" vertex="1">
          <mxGeometry x="4.666666666666668" y="130" width="98.00000000000001" height="30" as="geometry" />
        </mxCell>
        <mxCell id="dlKPfvXyrDqPOblD6m5v-139" value="iBGT &amp;gt;&amp;gt;" style="edgeStyle=orthogonalEdgeStyle;shape=connector;curved=1;rounded=0;orthogonalLoop=1;jettySize=auto;html=1;exitX=1;exitY=0.25;exitDx=0;exitDy=0;entryX=0;entryY=0.5;entryDx=0;entryDy=0;strokeColor=#b85450;align=center;verticalAlign=middle;fontFamily=Helvetica;fontSize=11;fontColor=default;labelBackgroundColor=default;endArrow=classic;fillColor=#f8cecc;strokeWidth=2;" parent="1" source="dlKPfvXyrDqPOblD6m5v-99" target="dlKPfvXyrDqPOblD6m5v-136" edge="1">
          <mxGeometry relative="1" as="geometry" />
        </mxCell>
        <mxCell id="dlKPfvXyrDqPOblD6m5v-140" style="edgeStyle=orthogonalEdgeStyle;shape=connector;curved=1;rounded=0;orthogonalLoop=1;jettySize=auto;html=1;exitX=1;exitY=0.5;exitDx=0;exitDy=0;strokeColor=#b85450;align=center;verticalAlign=middle;fontFamily=Helvetica;fontSize=11;fontColor=default;labelBackgroundColor=default;endArrow=classic;fillColor=#f8cecc;strokeWidth=2;" parent="1" source="dlKPfvXyrDqPOblD6m5v-99" target="dlKPfvXyrDqPOblD6m5v-137" edge="1">
          <mxGeometry relative="1" as="geometry" />
        </mxCell>
        <mxCell id="dlKPfvXyrDqPOblD6m5v-141" value="&amp;lt;&amp;lt; otiBGT" style="edgeLabel;html=1;align=center;verticalAlign=middle;resizable=0;points=[];rounded=1;strokeColor=#b85450;fontFamily=Helvetica;fontSize=11;fontColor=default;labelBackgroundColor=default;fillColor=#f8cecc;" parent="dlKPfvXyrDqPOblD6m5v-140" vertex="1" connectable="0">
          <mxGeometry x="0.3743" y="-5" relative="1" as="geometry">
            <mxPoint x="-71" y="-10" as="offset" />
          </mxGeometry>
        </mxCell>
        <mxCell id="dlKPfvXyrDqPOblD6m5v-145" style="edgeStyle=orthogonalEdgeStyle;shape=connector;curved=1;rounded=0;orthogonalLoop=1;jettySize=auto;html=1;exitX=0.5;exitY=1;exitDx=0;exitDy=0;entryX=0.5;entryY=0;entryDx=0;entryDy=0;strokeColor=#b85450;align=center;verticalAlign=middle;fontFamily=Helvetica;fontSize=11;fontColor=default;labelBackgroundColor=default;endArrow=classic;fillColor=#f8cecc;dashed=1;" parent="1" source="dlKPfvXyrDqPOblD6m5v-143" target="dlKPfvXyrDqPOblD6m5v-144" edge="1">
          <mxGeometry relative="1" as="geometry" />
        </mxCell>
        <mxCell id="dlKPfvXyrDqPOblD6m5v-143" value="_updatePool()" style="rounded=1;whiteSpace=wrap;html=1;fontFamily=Helvetica;fontSize=11;labelBackgroundColor=default;fillColor=#f8cecc;strokeColor=#b85450;align=left;container=0;glass=0;sketch=1;curveFitting=1;jiggle=2;" parent="1" vertex="1">
          <mxGeometry x="130" y="1870" width="150" height="40" as="geometry" />
        </mxCell>
        <mxCell id="dlKPfvXyrDqPOblD6m5v-148" value="oriBGT" style="edgeStyle=orthogonalEdgeStyle;shape=connector;curved=1;rounded=0;orthogonalLoop=1;jettySize=auto;html=1;exitX=1;exitY=0.75;exitDx=0;exitDy=0;entryX=0.5;entryY=0;entryDx=0;entryDy=0;strokeColor=#b85450;align=center;verticalAlign=middle;fontFamily=Helvetica;fontSize=11;fontColor=default;labelBackgroundColor=default;endArrow=classic;fillColor=#f8cecc;dashed=1;dashPattern=8 8;" parent="1" source="dlKPfvXyrDqPOblD6m5v-144" target="dlKPfvXyrDqPOblD6m5v-147" edge="1">
          <mxGeometry x="0.3846" y="-20" relative="1" as="geometry">
            <mxPoint as="offset" />
          </mxGeometry>
        </mxCell>
        <mxCell id="dlKPfvXyrDqPOblD6m5v-144" value="_claimPOL()" style="rounded=1;whiteSpace=wrap;html=1;fontFamily=Helvetica;fontSize=11;labelBackgroundColor=default;fillColor=#f8cecc;strokeColor=#b85450;align=left;container=0;glass=0;sketch=1;curveFitting=1;jiggle=2;" parent="1" vertex="1">
          <mxGeometry x="150" y="1950" width="210" height="60" as="geometry" />
        </mxCell>
        <mxCell id="dlKPfvXyrDqPOblD6m5v-147" value="&lt;div&gt;&lt;br&gt;&lt;/div&gt;&lt;div&gt;&lt;br&gt;&lt;/div&gt;&lt;div&gt;feeAddress&lt;/div&gt;" style="shape=actor;whiteSpace=wrap;html=1;fillColor=#f5f5f5;strokeColor=#666666;fontColor=#333333;" parent="1" vertex="1">
          <mxGeometry x="330" y="2160" width="80" height="70" as="geometry" />
        </mxCell>
        <mxCell id="dlKPfvXyrDqPOblD6m5v-142" value="&lt;div&gt;&lt;br&gt;&lt;/div&gt;" style="whiteSpace=wrap;html=1;imageAspect=1;rounded=1;fillColor=#e1d5e7;strokeColor=#9673a6;container=0;" parent="1" vertex="1">
          <mxGeometry x="470" y="1550" width="170" height="210" as="geometry" />
        </mxCell>
        <mxCell id="dlKPfvXyrDqPOblD6m5v-86" value="&lt;div&gt;&lt;br&gt;&lt;/div&gt;" style="whiteSpace=wrap;html=1;imageAspect=1;rounded=1;fillColor=#e1d5e7;strokeColor=#9673a6;container=0;" parent="1" vertex="1">
          <mxGeometry x="510" y="1570" width="170" height="280" as="geometry" />
        </mxCell>
        <mxCell id="dlKPfvXyrDqPOblD6m5v-87" value="INFRARED VAULT" style="rounded=1;whiteSpace=wrap;html=1;align=center;verticalAlign=middle;fontFamily=Helvetica;fontSize=11;labelBackgroundColor=default;sketch=1;curveFitting=1;jiggle=2;container=0;fillColor=#dae8fc;strokeColor=#6c8ebf;" parent="1" vertex="1">
          <mxGeometry x="526.67" y="1590" width="123.33" height="20" as="geometry" />
        </mxCell>
        <mxCell id="dlKPfvXyrDqPOblD6m5v-89" value="stake()" style="rounded=1;whiteSpace=wrap;html=1;fontFamily=Helvetica;fontSize=11;labelBackgroundColor=default;fillColor=#f8cecc;strokeColor=#b85450;align=left;container=0;" parent="1" vertex="1">
          <mxGeometry x="530.33" y="1660" width="119.67" height="30" as="geometry" />
        </mxCell>
        <mxCell id="dlKPfvXyrDqPOblD6m5v-90" value="getReward()" style="rounded=1;whiteSpace=wrap;html=1;fontFamily=Helvetica;fontSize=11;labelBackgroundColor=default;fillColor=#f8cecc;strokeColor=#b85450;align=left;container=0;" parent="1" vertex="1">
          <mxGeometry x="530.33" y="1700" width="119.67" height="30" as="geometry" />
        </mxCell>
        <mxCell id="dlKPfvXyrDqPOblD6m5v-151" value="withdraw()" style="rounded=1;whiteSpace=wrap;html=1;fontFamily=Helvetica;fontSize=11;labelBackgroundColor=default;fillColor=#f8cecc;strokeColor=#b85450;align=left;container=0;" parent="1" vertex="1">
          <mxGeometry x="530.33" y="1740" width="119.67" height="30" as="geometry" />
        </mxCell>
        <mxCell id="dlKPfvXyrDqPOblD6m5v-94" value="&amp;lt;&amp;lt; iBGT&lt;div&gt;&amp;lt;&amp;lt; OTHERS&lt;/div&gt;" style="edgeStyle=orthogonalEdgeStyle;shape=connector;curved=1;rounded=0;orthogonalLoop=1;jettySize=auto;html=1;exitX=1;exitY=0.25;exitDx=0;exitDy=0;entryX=0;entryY=0.5;entryDx=0;entryDy=0;strokeColor=#b85450;align=center;verticalAlign=middle;fontFamily=Helvetica;fontSize=11;fontColor=default;labelBackgroundColor=default;endArrow=classic;fillColor=#f8cecc;strokeWidth=2;" parent="1" source="dlKPfvXyrDqPOblD6m5v-144" target="dlKPfvXyrDqPOblD6m5v-90" edge="1">
          <mxGeometry relative="1" as="geometry" />
        </mxCell>
        <mxCell id="dlKPfvXyrDqPOblD6m5v-154" value="POL &amp;gt;&amp;gt;" style="edgeStyle=orthogonalEdgeStyle;shape=connector;curved=1;rounded=0;orthogonalLoop=1;jettySize=auto;html=1;exitX=1;exitY=0.5;exitDx=0;exitDy=0;entryX=0;entryY=0.5;entryDx=0;entryDy=0;strokeColor=#b85450;align=center;verticalAlign=middle;fontFamily=Helvetica;fontSize=11;fontColor=default;labelBackgroundColor=default;endArrow=classic;fillColor=#f8cecc;strokeWidth=2;" parent="1" source="dlKPfvXyrDqPOblD6m5v-152" target="dlKPfvXyrDqPOblD6m5v-89" edge="1">
          <mxGeometry relative="1" as="geometry" />
        </mxCell>
        <mxCell id="dlKPfvXyrDqPOblD6m5v-152" value="_deposit()" style="rounded=1;whiteSpace=wrap;html=1;fontFamily=Helvetica;fontSize=11;labelBackgroundColor=default;fillColor=#f8cecc;strokeColor=#b85450;align=left;container=0;glass=0;sketch=1;curveFitting=1;jiggle=2;" parent="1" vertex="1">
          <mxGeometry x="230" y="1640" width="150" height="40" as="geometry" />
        </mxCell>
        <mxCell id="dlKPfvXyrDqPOblD6m5v-171" style="edgeStyle=orthogonalEdgeStyle;shape=connector;curved=1;rounded=0;orthogonalLoop=1;jettySize=auto;html=1;exitX=1;exitY=0.5;exitDx=0;exitDy=0;entryX=0;entryY=0.25;entryDx=0;entryDy=0;strokeColor=#b85450;align=center;verticalAlign=middle;fontFamily=Helvetica;fontSize=11;fontColor=default;labelBackgroundColor=default;endArrow=classic;fillColor=#f8cecc;dashed=1;" parent="1" source="dlKPfvXyrDqPOblD6m5v-70" target="dlKPfvXyrDqPOblD6m5v-157" edge="1">
          <mxGeometry relative="1" as="geometry" />
        </mxCell>
        <mxCell id="dlKPfvXyrDqPOblD6m5v-172" style="edgeStyle=orthogonalEdgeStyle;shape=connector;curved=1;rounded=0;orthogonalLoop=1;jettySize=auto;html=1;exitX=1;exitY=0.75;exitDx=0;exitDy=0;entryX=0;entryY=0.25;entryDx=0;entryDy=0;strokeColor=#b85450;align=center;verticalAlign=middle;fontFamily=Helvetica;fontSize=11;fontColor=default;labelBackgroundColor=default;endArrow=classic;fillColor=#f8cecc;dashed=1;" parent="1" source="dlKPfvXyrDqPOblD6m5v-70" target="dlKPfvXyrDqPOblD6m5v-170" edge="1">
          <mxGeometry relative="1" as="geometry" />
        </mxCell>
        <mxCell id="dlKPfvXyrDqPOblD6m5v-70" value="addToPOLClaimFees()" style="rounded=1;whiteSpace=wrap;html=1;fontFamily=Helvetica;fontSize=11;labelBackgroundColor=default;fillColor=#f8cecc;strokeColor=#b85450;align=left;" parent="1" vertex="1">
          <mxGeometry x="-517.5" y="1670" width="127.5" height="80" as="geometry" />
        </mxCell>
        <mxCell id="dlKPfvXyrDqPOblD6m5v-71" value="LOCK IN EXTERNAL" style="rounded=1;whiteSpace=wrap;html=1;align=center;verticalAlign=middle;fontFamily=Helvetica;fontSize=11;labelBackgroundColor=default;sketch=1;curveFitting=1;jiggle=2;fillColor=#dae8fc;strokeColor=#6c8ebf;" parent="1" vertex="1">
          <mxGeometry x="-460" y="1440" width="260" height="20" as="geometry" />
        </mxCell>
        <mxCell id="dlKPfvXyrDqPOblD6m5v-72" value="LOCK IN EXTERNAL" style="rounded=1;whiteSpace=wrap;html=1;align=center;verticalAlign=middle;fontFamily=Helvetica;fontSize=11;labelBackgroundColor=default;sketch=1;curveFitting=1;jiggle=2;fillColor=#dae8fc;strokeColor=#6c8ebf;" parent="1" vertex="1">
          <mxGeometry x="-560" y="1390" width="260" height="20" as="geometry" />
        </mxCell>
        <mxCell id="dlKPfvXyrDqPOblD6m5v-73" value="LOCK IN EXTERNAL" style="rounded=1;whiteSpace=wrap;html=1;align=center;verticalAlign=middle;fontFamily=Helvetica;fontSize=11;labelBackgroundColor=default;sketch=1;curveFitting=1;jiggle=2;fillColor=#dae8fc;strokeColor=#6c8ebf;" parent="1" vertex="1">
          <mxGeometry x="-590" y="1340" width="260" height="20" as="geometry" />
        </mxCell>
        <mxCell id="dlKPfvXyrDqPOblD6m5v-112" value="LOCK IN EXTERNAL&lt;div&gt;assets:&amp;nbsp;&lt;/div&gt;&lt;div&gt;- NFT (compounder position)&lt;/div&gt;&lt;div&gt;&lt;br&gt;&lt;/div&gt;&lt;div&gt;&lt;br&gt;&lt;div&gt;- 1 NFT collection&lt;/div&gt;&lt;div&gt;- 1 P&lt;span style=&quot;color: rgba(0, 0, 0, 0); font-family: monospace; font-size: 0px; text-align: start; text-wrap-mode: nowrap; background-color: transparent;&quot;&gt;%3CmxGraphModel%3E%3Croot%3E%3CmxCell%20id%3D%220%22%2F%3E%3CmxCell%20id%3D%221%22%20parent%3D%220%22%2F%3E%3CmxCell%20id%3D%222%22%20value%3D%22tokenId%20%3D%3D%20Pool%26lt%3Bdiv%26gt%3BNft%20owner%26lt%3B%2Fdiv%26gt%3B%26lt%3Bdiv%26gt%3B%26amp%3Bnbsp%3B%26lt%3B%2Fdiv%26gt%3B%22%20style%3D%22rounded%3D1%3BwhiteSpace%3Dwrap%3Bhtml%3D1%3B%22%20vertex%3D%221%22%20parent%3D%221%22%3E%3CmxGeometry%20x%3D%22200%22%20y%3D%22590%22%20width%3D%22120%22%20height%3D%2260%22%20as%3D%22geometry%22%2F%3E%3C%2FmxCell%3E%3C%2Froot%3E%3C%2FmxGraphModel%3E&lt;/span&gt;&lt;span style=&quot;background-color: transparent; color: light-dark(rgb(0, 0, 0), rgb(255, 255, 255));&quot;&gt;OL token&lt;/span&gt;&lt;/div&gt;&lt;div&gt;- lock duration&lt;/div&gt;&lt;div&gt;- many NFT owners&lt;/div&gt;&lt;div&gt;&lt;br&gt;&lt;/div&gt;&lt;div&gt;&lt;br style=&quot;font-size: 12px; background-color: rgb(236, 236, 236);&quot;&gt;&lt;/div&gt;&lt;/div&gt;" style="text;html=1;align=center;verticalAlign=middle;whiteSpace=wrap;rounded=0;fontFamily=Helvetica;fontSize=11;fontColor=default;labelBackgroundColor=default;" parent="1" vertex="1">
          <mxGeometry x="-520" y="1480" width="220" height="220" as="geometry" />
        </mxCell>
        <mxCell id="dlKPfvXyrDqPOblD6m5v-174" style="edgeStyle=orthogonalEdgeStyle;shape=connector;curved=1;rounded=0;orthogonalLoop=1;jettySize=auto;html=1;exitX=1;exitY=0.5;exitDx=0;exitDy=0;entryX=0;entryY=0.25;entryDx=0;entryDy=0;strokeColor=#b85450;align=center;verticalAlign=middle;fontFamily=Helvetica;fontSize=11;fontColor=default;labelBackgroundColor=default;endArrow=classic;fillColor=#f8cecc;dashed=1;" parent="1" source="dlKPfvXyrDqPOblD6m5v-114" target="dlKPfvXyrDqPOblD6m5v-173" edge="1">
          <mxGeometry relative="1" as="geometry" />
        </mxCell>
        <mxCell id="dlKPfvXyrDqPOblD6m5v-114" value="redeemPOL()" style="rounded=1;whiteSpace=wrap;html=1;fontFamily=Helvetica;fontSize=11;labelBackgroundColor=default;fillColor=#f8cecc;strokeColor=#b85450;align=left;" parent="1" vertex="1">
          <mxGeometry x="-520" y="1780" width="110" height="50" as="geometry" />
        </mxCell>
        <mxCell id="dlKPfvXyrDqPOblD6m5v-175" style="edgeStyle=orthogonalEdgeStyle;shape=connector;curved=1;rounded=0;orthogonalLoop=1;jettySize=auto;html=1;exitX=1;exitY=0.5;exitDx=0;exitDy=0;entryX=0;entryY=0.5;entryDx=0;entryDy=0;strokeColor=#b85450;align=center;verticalAlign=middle;fontFamily=Helvetica;fontSize=11;fontColor=default;labelBackgroundColor=default;endArrow=classic;fillColor=#f8cecc;dashed=1;" parent="1" source="dlKPfvXyrDqPOblD6m5v-121" target="dlKPfvXyrDqPOblD6m5v-173" edge="1">
          <mxGeometry relative="1" as="geometry" />
        </mxCell>
        <mxCell id="dlKPfvXyrDqPOblD6m5v-121" value="claim()" style="rounded=1;whiteSpace=wrap;html=1;fontFamily=Helvetica;fontSize=11;labelBackgroundColor=default;fillColor=#f8cecc;strokeColor=#b85450;align=left;" parent="1" vertex="1">
          <mxGeometry x="-520" y="1870" width="110" height="50" as="geometry" />
        </mxCell>
        <mxCell id="dlKPfvXyrDqPOblD6m5v-157" value="_addToPOL()" style="rounded=1;whiteSpace=wrap;html=1;fontFamily=Helvetica;fontSize=11;labelBackgroundColor=default;fillColor=#f8cecc;strokeColor=#b85450;align=left;glass=0;sketch=1;curveFitting=1;jiggle=2;" parent="1" vertex="1">
          <mxGeometry x="-340" y="1680" width="160" height="40" as="geometry" />
        </mxCell>
        <mxCell id="dlKPfvXyrDqPOblD6m5v-170" value="_claimPOL()" style="rounded=1;whiteSpace=wrap;html=1;fontFamily=Helvetica;fontSize=11;labelBackgroundColor=default;fillColor=#f8cecc;strokeColor=#b85450;align=left;glass=0;sketch=1;curveFitting=1;jiggle=2;" parent="1" vertex="1">
          <mxGeometry x="-330" y="1750" width="150" height="40" as="geometry" />
        </mxCell>
        <mxCell id="dlKPfvXyrDqPOblD6m5v-173" value="_claim()" style="rounded=1;whiteSpace=wrap;html=1;fontFamily=Helvetica;fontSize=11;labelBackgroundColor=default;fillColor=#f8cecc;strokeColor=#b85450;align=left;glass=0;sketch=1;curveFitting=1;jiggle=2;" parent="1" vertex="1">
          <mxGeometry x="-340" y="1910" width="120" height="40" as="geometry" />
        </mxCell>
        <mxCell id="dlKPfvXyrDqPOblD6m5v-120" value="&amp;lt;&amp;lt; POL&lt;div&gt;&amp;lt;&amp;lt; oriBGT&lt;/div&gt;" style="edgeStyle=orthogonalEdgeStyle;shape=connector;curved=1;rounded=0;orthogonalLoop=1;jettySize=auto;html=1;exitX=1;exitY=0.75;exitDx=0;exitDy=0;strokeColor=#b85450;align=center;verticalAlign=middle;fontFamily=Helvetica;fontSize=11;fontColor=default;labelBackgroundColor=default;endArrow=classic;fillColor=#f8cecc;strokeWidth=2;" parent="1" source="dlKPfvXyrDqPOblD6m5v-114" target="dlKPfvXyrDqPOblD6m5v-118" edge="1">
          <mxGeometry x="0.1878" relative="1" as="geometry">
            <mxPoint x="1" as="offset" />
            <Array as="points">
              <mxPoint x="-410" y="1820" />
              <mxPoint x="-320" y="1820" />
              <mxPoint x="-320" y="1850" />
            </Array>
          </mxGeometry>
        </mxCell>
        <mxCell id="dlKPfvXyrDqPOblD6m5v-156" value="" style="edgeLabel;html=1;align=center;verticalAlign=middle;resizable=0;points=[];rounded=1;strokeColor=#b85450;fontFamily=Helvetica;fontSize=11;fontColor=default;labelBackgroundColor=default;fillColor=#f8cecc;" parent="dlKPfvXyrDqPOblD6m5v-120" vertex="1" connectable="0">
          <mxGeometry x="0.4163" y="2" relative="1" as="geometry">
            <mxPoint as="offset" />
          </mxGeometry>
        </mxCell>
        <mxCell id="lCTNNWpJkp7lbx310OnM-2" style="edgeStyle=orthogonalEdgeStyle;rounded=0;orthogonalLoop=1;jettySize=auto;html=1;exitX=0.5;exitY=0;exitDx=0;exitDy=0;entryX=0.579;entryY=1.05;entryDx=0;entryDy=0;entryPerimeter=0;dashed=1;fillColor=#f8cecc;strokeColor=#b85450;curved=1;" parent="1" source="dlKPfvXyrDqPOblD6m5v-173" target="dlKPfvXyrDqPOblD6m5v-170" edge="1">
          <mxGeometry relative="1" as="geometry" />
        </mxCell>
        <mxCell id="lCTNNWpJkp7lbx310OnM-7" value="&lt;div&gt;&lt;br&gt;&lt;/div&gt;&lt;div&gt;&lt;br&gt;&lt;/div&gt;&lt;div&gt;&lt;span style=&quot;background-color: transparent; color: light-dark(rgb(0, 0, 0), rgb(255, 255, 255));&quot;&gt;collection&amp;nbsp;&lt;/span&gt;&lt;/div&gt;&lt;div&gt;owner&lt;/div&gt;" style="shape=actor;whiteSpace=wrap;html=1;fillColor=#f8cecc;strokeColor=#b85450;" parent="1" vertex="1">
          <mxGeometry x="-800" y="1655" width="80" height="70" as="geometry" />
        </mxCell>
        <mxCell id="lCTNNWpJkp7lbx310OnM-8" value="" style="whiteSpace=wrap;html=1;rounded=1;sketch=1;curveFitting=1;jiggle=2;" parent="1" vertex="1">
          <mxGeometry x="-880" y="1440" width="240" height="185" as="geometry" />
        </mxCell>
        <mxCell id="lCTNNWpJkp7lbx310OnM-9" style="edgeStyle=orthogonalEdgeStyle;rounded=0;orthogonalLoop=1;jettySize=auto;html=1;exitX=0.9;exitY=0.5;exitDx=0;exitDy=0;exitPerimeter=0;curved=1;entryX=0.25;entryY=0;entryDx=0;entryDy=0;fillColor=#f8cecc;strokeColor=#b85450;" parent="1" source="lCTNNWpJkp7lbx310OnM-10" target="lCTNNWpJkp7lbx310OnM-11" edge="1">
          <mxGeometry relative="1" as="geometry" />
        </mxCell>
        <mxCell id="lCTNNWpJkp7lbx310OnM-10" value="NFT&lt;div&gt;collection&lt;/div&gt;&lt;div&gt;owner&lt;/div&gt;" style="shape=actor;whiteSpace=wrap;html=1;fillColor=#f8cecc;strokeColor=#b85450;" parent="1" vertex="1">
          <mxGeometry x="-865" y="1320" width="80" height="70" as="geometry" />
        </mxCell>
        <mxCell id="lCTNNWpJkp7lbx310OnM-11" value="&lt;div&gt;&lt;span style=&quot;font-size: 11px; text-wrap-mode: nowrap; background-color: rgb(255, 255, 255);&quot;&gt;createExternalLockInContract()&lt;/span&gt;&lt;/div&gt;" style="rounded=1;whiteSpace=wrap;html=1;fillColor=#f8cecc;strokeColor=#b85450;" parent="1" vertex="1">
          <mxGeometry x="-860" y="1505" width="200" height="30" as="geometry" />
        </mxCell>
        <mxCell id="lCTNNWpJkp7lbx310OnM-12" value="deploy()" style="edgeStyle=orthogonalEdgeStyle;shape=connector;curved=1;rounded=0;orthogonalLoop=1;jettySize=auto;html=1;exitX=1;exitY=0.5;exitDx=0;exitDy=0;entryX=0.001;entryY=0.15;entryDx=0;entryDy=0;entryPerimeter=0;strokeColor=#b85450;align=center;verticalAlign=middle;fontFamily=Helvetica;fontSize=11;fontColor=default;labelBackgroundColor=default;endArrow=classic;fillColor=#f8cecc;" parent="1" source="lCTNNWpJkp7lbx310OnM-11" target="dlKPfvXyrDqPOblD6m5v-69" edge="1">
          <mxGeometry relative="1" as="geometry">
            <mxPoint x="-664" y="1538" as="targetPoint" />
          </mxGeometry>
        </mxCell>
        <mxCell id="lCTNNWpJkp7lbx310OnM-13" value="FACTORY" style="rounded=1;whiteSpace=wrap;html=1;align=center;verticalAlign=middle;fontFamily=Helvetica;fontSize=11;labelBackgroundColor=default;sketch=1;curveFitting=1;jiggle=2;fillColor=#dae8fc;strokeColor=#6c8ebf;" parent="1" vertex="1">
          <mxGeometry x="-865" y="1450" width="210" height="20" as="geometry" />
        </mxCell>
        <mxCell id="ROvtfwUU1T6SESTw6FFN-2" style="edgeStyle=orthogonalEdgeStyle;rounded=0;orthogonalLoop=1;jettySize=auto;html=1;exitX=1;exitY=0.5;exitDx=0;exitDy=0;entryX=0;entryY=0.5;entryDx=0;entryDy=0;fillColor=#f8cecc;strokeColor=#b85450;curved=1;dashed=1;" parent="1" source="ROvtfwUU1T6SESTw6FFN-1" target="dlKPfvXyrDqPOblD6m5v-143" edge="1">
          <mxGeometry relative="1" as="geometry" />
        </mxCell>
        <mxCell id="ROvtfwUU1T6SESTw6FFN-1" value="updatePool()" style="rounded=1;whiteSpace=wrap;html=1;fontFamily=Helvetica;fontSize=11;labelBackgroundColor=default;fillColor=#f8cecc;strokeColor=#b85450;align=left;container=0;" parent="1" vertex="1">
          <mxGeometry x="-50" y="1920" width="110" height="60" as="geometry" />
        </mxCell>
        <mxCell id="dlKPfvXyrDqPOblD6m5v-155" value="&amp;lt;&amp;lt; POL" style="edgeStyle=orthogonalEdgeStyle;shape=connector;curved=1;rounded=0;orthogonalLoop=1;jettySize=auto;html=1;exitX=1;exitY=0.75;exitDx=0;exitDy=0;entryX=0;entryY=0.5;entryDx=0;entryDy=0;strokeColor=#b85450;align=center;verticalAlign=middle;fontFamily=Helvetica;fontSize=11;fontColor=default;labelBackgroundColor=default;endArrow=classic;fillColor=#f8cecc;strokeWidth=2;" parent="1" source="dlKPfvXyrDqPOblD6m5v-118" target="dlKPfvXyrDqPOblD6m5v-151" edge="1">
          <mxGeometry x="-0.0552" y="10" relative="1" as="geometry">
            <Array as="points">
              <mxPoint x="120" y="1885" />
              <mxPoint x="120" y="1820" />
              <mxPoint x="360" y="1820" />
              <mxPoint x="360" y="1755" />
            </Array>
            <mxPoint as="offset" />
          </mxGeometry>
        </mxCell>
      </root>
    </mxGraphModel>
  </diagram>
</mxfile>
